<svg height="512pt" viewBox="-80 0 512 512" width="512pt" xmlns="http://www.w3.org/2000/svg"><path d="m280 225c0 5.5 4.457031 10 10 10 5.519531 0 10-4.480469 10-10s-4.480469-10-10-10c-5.4375 0-10 4.414062-10 10zm0 0"/><path d="m21.945312 402.113281c17.398438 50.523438 43.929688 88 76.726563 108.378907 1.492187.929687 3.398437 1.507812 5.273437 1.507812h.003907 50c6.820312 0 11.652343-6.699219 9.484375-13.171875-8.664063-25.898437-13.433594-58.867187-13.433594-92.828125 0-48.65625 9.578125-93.375 24.980469-119.21875 18.503906 31.257812 24.890625 80.96875 25.011719 118.015625-.210938 2.300781 1.453124 48.597656-13.449219 94.105469-2.121094 6.515625 2.792969 13.097656 9.507812 13.097656h57.589844c9.941406 0 19.195313-4.777344 24.765625-12.785156 86.652344-124.800782 94.078125-318.570313 37.867188-426.03125-21.3125-40.75-54.671876-73.183594-100.484376-73.183594h-65.789062c-69.226562 0-114.109375 78.296875-133.507812 145.394531-.003907.019531-.007813.042969-.015626.066407-10.777343 37.308593-16.476562 78.988281-16.476562 120.539062 0 48.621094 8.476562 96.988281 21.945312 136.113281zm40.402344-315.691406c24.335938-14.78125 50.941406-23.355469 77.652344-25.078125v20.996094c-.066406.003906-.136719.007812-.203125.011718-31.832031 2.082032-64.328125 14.222657-91.910156 33.691407 4.378906-10.53125 9.207031-20.425781 14.460937-29.621094zm157.578125 326.226563c14.546875-5.789063 28.402344-13.414063 41.140625-22.613282-11.476562 34.632813-27.730468 63.953125-47.507812 84.644532 3.851562-19.21875 6-40.171876 6.367187-62.03125zm50.53125-56.839844c-14.625 14.699218-31.945312 26.703125-50.769531 35.222656-.253906-6.328125-.703125-13.570312-1.457031-21.414062 20.988281-10.402344 40.875-24.632813 57.175781-40.679688-1.359375 9.160156-3.015625 18.132812-4.949219 26.871094zm-240.695312.21875c-1.960938-8.890625-3.613281-17.886719-4.972657-26.902344 16.257813 15.960938 36.058594 30.117188 56.949219 40.476562-.566406 5.917969-1.003906 11.953126-1.292969 18.089844-.054687 1.117188-.089843 2.226563-.132812 3.339844-18.730469-8.476562-35.972656-20.40625-50.550781-35.003906zm-9.761719-90.027344c0-38.863281 5.214844-77.777344 15.0625-112.734375 27.667969-28.730469 67.535156-48.085937 104.9375-50.867187v21.074218c-55.53125 5.175782-100 53.683594-100 111.527344 0 37.148438 18.441406 71.800781 48.597656 92.214844-1.613281 6.800781-3.011718 13.902344-4.183594 21.253906-25.308593-13.6875-48.289062-33.210938-63.4375-54.125-.652343-9.585938-.976562-19.070312-.976562-28.34375zm120-101.265625c-33.542969 4.921875-60 34.664063-60 70.265625 0 19.628906 8.367188 38.875 22.257812 52.089844-2.867187 6.039062-5.484374 12.597656-7.835937 19.605468-21.488281-17.039062-34.421875-43.476562-34.421875-71.695312 0-46.421875 35.714844-86.128906 80-91.398438zm-27.308594 104.347656c-7.980468-9.230469-12.691406-21.527343-12.691406-34.082031 0-24.164062 17.492188-45.050781 40-49.925781v21.644531c-11.640625 4.128906-20 15.246094-20 28.28125 0 7.222656 2.542969 13.957031 6.726562 19.296875-4.613281 3.457031-9.351562 8.246094-14.035156 14.785156zm27.308594-34.082031c0-5.515625 4.484375-10 10-10s10 4.484375 10 10c0 5.757812-4.765625 11-10 11s-10-5.242188-10-11zm33.273438 19.292969c4.183593-5.339844 6.726562-12.074219 6.726562-19.292969 0-13.035156-8.359375-24.152344-20-28.28125v-21.644531c22.503906 4.875 40 25.761719 40 49.925781 0 12.554688-4.710938 24.851562-12.691406 34.082031-4.386719-6.125-9.085938-11.070312-14.035156-14.789062zm24.46875 32.796875c13.890624-13.214844 22.257812-32.460938 22.257812-52.089844 0-35.566406-26.417969-65.339844-60-70.265625v-21.132813c44.289062 5.269532 80 44.976563 80 91.398438 0 28.207031-12.921875 54.636719-34.398438 71.679688-2.257812-6.714844-4.855468-13.292969-7.859374-19.589844zm54.707031-170.726563c-27.695313-19.542969-60.503907-31.773437-92.449219-33.980469v-21.039062c26.746094 1.722656 53.382812 10.316406 77.730469 25.125 6.761719 11.765625 11.675781 22.574219 14.71875 29.894531zm-92.449219-75.074219v-20.546874c21.355469 3.144531 39.230469 16.066406 53.542969 31.847656-17.429688-6.449219-35.453125-10.269532-53.542969-11.300782zm-121.015625 348.78125c12.722656 9.183594 26.558594 16.792969 41.082031 22.578126.363282 21.832031 2.554688 43.003906 6.464844 62.417968-20.957031-21.503906-36.667969-51.578125-47.546875-84.996094zm101.511719 101.929688h-29.203125c-18.683594-63.359375-13.386719-156.089844 12.246093-202.625 8.300782-15.074219 17.699219-23.375 26.460938-23.375 4.179688 0 8.101562 1.828125 11.648438 4.574219-19.675782 28.542969-31.648438 79.101562-31.648438 135.425781 0 31.078125 3.609375 60.5 10.496094 86zm75.292968-472c41.402344 0 67.859376 33.960938 82.761719 62.453125 50.8125 97.140625 48.238281 283.199219-36.570312 405.347656-1.828125 2.628907-4.945313 4.199219-8.339844 4.199219h-29.109375c22.117188-21.738281 40.007812-51.621094 53.167969-88.914062 15.46875-43.832032 22.300781-91.527344 22.300781-137.085938 0-5.523438-4.476562-10-10-10s-10 4.476562-10 10c0 9.496094-.324219 18.984375-.933594 28.277344-15.148437 20.949218-38.160156 40.503906-63.503906 54.203125-1.097656-6.953125-2.457031-14.101563-4.148438-21.273438 30.148438-20.417969 48.585938-55.066406 48.585938-92.207031 0-57.800781-44.433594-106.347656-100-111.527344v-21.039062c38.039062 2.972656 77.453125 22.03125 105.363281 51.296875 2.964844 10.515625 5.472657 21.320312 7.605469 32.757812 1.015625 5.433594 6.242188 9.003907 11.667969 7.992188 5.429687-1.011719 9.007812-6.238281 7.992187-11.664063-9.625-51.550781-30.585937-107.9375-66.273437-145.714844-6.207031-6.570312-12.589844-12.265624-19.128907-17.101562zm-75.789062.785156v20.503906c-18.03125 1.03125-36.003906 4.832032-53.382812 11.246094 16.488281-17.996094 34.6875-28.878906 53.382812-31.75zm0 0"/></svg>