<svg height="512pt" viewBox="0 0 512 512" width="512pt" xmlns="http://www.w3.org/2000/svg"><path d="m0 256v14.308594c0 7.074218.609375 21.859375 4.679688 41.421875 1.125 5.40625 6.425781 8.878906 11.828124 7.753906 5.40625-1.125 8.878907-6.421875 7.753907-11.828125-3.707031-17.808594-4.261719-31.042969-4.261719-37.347656v-4.308594h472v4.308594c0 82.597656-54.765625 158.703125-130.457031 181.691406h-211.097657c-42.058593-12.652344-75.039062-37.410156-98.027343-73.628906-2.960938-4.664063-9.140625-6.042969-13.800781-3.085938-4.664063 2.960938-6.042969 9.140625-3.085938 13.804688 24.785156 39.039062 59.90625 66.132812 104.46875 80.609375v32.300781c0 5.523438 4.476562 10 10 10h212c5.523438 0 10-4.476562 10-10v-32.332031c84-27.972657 140-111.964844 140-199.359375v-14.308594c0-5.523438-4.476562-10-10-10h-16.382812c-5.121094-67.027344-61.300782-120-129.617188-120-10.175781 0-20.21875 1.175781-30.007812 3.5-.269532-71.453125-58.476563-129.5-129.992188-129.5-5.523438 0-10 4.476562-10 10v78.515625c-6.480469-1.671875-13.164062-2.515625-20-2.515625-38.667969 0-71.304688 27.335938-78.519531 64.617188-36.519531 12.144531-61.480469 46.34375-61.480469 85.382812 0 3.34375.195312 6.683594.5625 10h-16.5625c-5.523438 0-10 4.476562-10 10zm160 236v-20h192v20zm196-286c-24.144531 0-44.347656 17.203125-48.992188 40h-20.28125c4.867188-33.875 34.070313-60 69.273438-60s64.40625 26.125 69.273438 60h-20.28125c-4.644532-22.796875-24.847657-40-48.992188-40zm28.28125 40h-56.5625c4.128906-11.640625 15.246094-20 28.28125-20s24.152344 8.359375 28.28125 20zm81.257812 0h-20.097656c-4.992187-44.9375-43.195312-80-89.441406-80-46.242188 0-84.449219 35.0625-89.441406 80h-20.082032c5.128907-56.003906 52.214844-100 109.523438-100 57.28125 0 104.472656 44.015625 109.539062 100zm-159.539062-116v6.03125c-45.054688 18.8125-75.859375 61.484375-79.609375 109.96875h-20.390625v-225.550781c55.988281 5.066406 100 52.265625 100 109.550781zm-260 106c0-32.132812 21.734375-60.046875 52.851562-67.882812 4.058594-1.023438 7.050782-4.464844 7.5-8.625 3.285157-30.496094 28.925782-53.492188 59.648438-53.492188 6.910156 0 13.613281 1.15625 20 3.421875v136.578125h-20v-90c0-5.523438-4.476562-10-10-10s-10 4.476562-10 10v81.316406l-44.453125-29.636718c-4.59375-3.0625-10.804687-1.820313-13.867187 2.773437s-1.820313 10.804687 2.773437 13.867187l32.519531 21.679688h-76.253906c-.472656-3.304688-.71875-6.648438-.71875-10zm0 0"/><path d="m26 338c-5.519531 0-10 4.480469-10 10s4.480469 10 10 10 10-4.480469 10-10-4.480469-10-10-10zm0 0"/></svg>